# xmcd CD database file generated by OrangeCD 6.1
#
# Track frame offsets:
#	150
#	11297
#	22805
#	36166
#	46171
#	57558
#	69295
#	83267
#	97146
#	110618
#	125167
#	137591
#	148482
#	162722
#	174313
#	185977
#	197154
#	210039
#	222358
#	235534
#	250097
#	261919
#	275672
#	287562
#	298288
#	310649
#	320442
#	330980
#
# Disc length: 4575 seconds
#
# Revision: 1
# Processed by: cddbd v1.5.2PL0 Copyright (c) Steve Scherf et al.
# Submitted via: OrangeCD 6.1
#
DISCID=a011dd1c
DTITLE=Various Artist - Doo Wop Classics - Earth Angel
DYEAR=2005
DGENRE=Doo Wop
TTITLE0=The Chords - Sh'Boom
TTITLE1=The Clovers - Blue Velvet
TTITLE2=The Penguins - Earth Angel (Will You Be Mine)
TTITLE3=The Crows - Gee
TTITLE4=Hank Ballard and The Midnighters - Sexy Ways
TTITLE5=The Charms - Hearts Of Stone
TTITLE6=The Platters - Only You
TTITLE7=The 5 Royales - Help Me Somebody
TTITLE8=Clyde McPhatter and The Drifters - Money Honey
TTITLE9=Jesse and Marvin - Dream Girl
TTITLE10=Hank Ballard and The Midnighters - Work With Me Annie
TTITLE11=The Robins - I'm Livin' O.K.
TTITLE12=The Cardinals - Shouldn't I Know?
TTITLE13=The Flamingos - Jump Children
TTITLE14=The Spaniels - Baby, It's You
TTITLE15=The Larks - How Long Must I Wait For You?
TTITLE16=The Penguins - Kiss A Fool Goodbye
TTITLE17=The Clovers - Lovey Dovey
TTITLE18=The 5 Royales - One Mistake
TTITLE19=The Mellow-Moods - Where Are You? (Now That I Need You)
TTITLE20=The Dominoes - Pedal Pushin' Papa
TTITLE21=The Orioles - I Miss You So
TTITLE22=The Du Droppers - Boot 'em Up
TTITLE23=Marvin and Johnny - Baby Doll
TTITLE24=The 5 Royales - School Girl
TTITLE25=The Platters - Vooh Vee Ah Vee
TTITLE26=The Clovers - Down In The Alley
TTITLE27=The Spaniels - Goodnight Sweetheart, Goodnight
EXTD=
EXTT0=
EXTT1=
EXTT2=
EXTT3=
EXTT4=
EXTT5=
EXTT6=
EXTT7=
EXTT8=
EXTT9=
EXTT10=
EXTT11=
EXTT12=
EXTT13=
EXTT14=
EXTT15=
EXTT16=
EXTT17=
EXTT18=
EXTT19=
EXTT20=
EXTT21=
EXTT22=
EXTT23=
EXTT24=
EXTT25=
EXTT26=
EXTT27=
PLAYORDER=
